<svg id="圖層_1" data-name="圖層 1" xmlns="http://www.w3.org/2000/svg" viewBox="0 0 32.7 24.52"><defs><style>.cls-1{fill:#fff;}</style></defs><path class="cls-1" d="M426.48,398.31v10.54a1.52,1.52,0,0,1-1.29,1.66,1.3,1.3,0,0,1-1.21-.37c-.56-.53-1.09-1.07-1.64-1.62l-3.87-3.88a.81.81,0,0,0-.65-.27c-2,0-4,0-6.05,0a1.55,1.55,0,0,1-1.61-1.6q0-4.51,0-9a1.56,1.56,0,0,1,1.57-1.59c2,0,4,0,6.08,0a.82.82,0,0,0,.66-.26c1.76-1.79,3.53-3.56,5.3-5.33a1.49,1.49,0,0,1,1.76-.44,1.54,1.54,0,0,1,1,1.55v10.61Z" transform="translate(-410.16 -386.02)"/><path class="cls-1" d="M433.08,392.19a1.07,1.07,0,0,1,.84.39c.86.86,1.73,1.72,2.58,2.59.19.19.3.21.5,0,.83-.86,1.69-1.71,2.53-2.55a1.07,1.07,0,0,1,1.76,0l1.18,1.19a1,1,0,0,1,0,1.61c-.88.88-1.75,1.76-2.63,2.63-.18.17-.17.28,0,.45.87.85,1.73,1.72,2.59,2.58a1,1,0,0,1,0,1.69L441.2,404a1,1,0,0,1-1.59,0c-.88-.87-1.75-1.74-2.62-2.63-.18-.18-.29-.19-.48,0-.85.87-1.72,1.73-2.58,2.59a1.05,1.05,0,0,1-1.67,0L431,402.74a1,1,0,0,1,0-1.6c.88-.88,1.75-1.76,2.63-2.63.17-.17.19-.27,0-.45-.87-.85-1.73-1.72-2.59-2.58a1.05,1.05,0,0,1,0-1.69l1.23-1.24A1,1,0,0,1,433.08,392.19Z" transform="translate(-410.16 -386.02)"/></svg>