<svg id="圖層_1" data-name="圖層 1" xmlns="http://www.w3.org/2000/svg" viewBox="0 0 81.11 20.36"><defs><style>.cls-1{fill:#fff;}</style></defs><path class="cls-1" d="M365.86,408.16a10.73,10.73,0,0,1-3.34-.48,8.1,8.1,0,0,1-2.58-1.39l.66-1.45a10.87,10.87,0,0,0,1.55,1,7.47,7.47,0,0,0,1.69.57,10.32,10.32,0,0,0,2,.18,4.81,4.81,0,0,0,2.91-.72,2.35,2.35,0,0,0,.94-1.94,1.94,1.94,0,0,0-.66-1.58,5.35,5.35,0,0,0-2.31-.88l-2.31-.46a6.54,6.54,0,0,1-3.18-1.43,3.55,3.55,0,0,1-1-2.69,4.13,4.13,0,0,1,.71-2.42,4.68,4.68,0,0,1,2-1.6,7.5,7.5,0,0,1,3-.58,8.76,8.76,0,0,1,3,.5,6.37,6.37,0,0,1,2.33,1.44l-.63,1.41a6.6,6.6,0,0,0-2.17-1.33,7.6,7.6,0,0,0-2.56-.41,4.64,4.64,0,0,0-2.85.78,2.51,2.51,0,0,0-1.05,2.12,2.19,2.19,0,0,0,.66,1.69,4.59,4.59,0,0,0,2.18.91l2.33.46a7.16,7.16,0,0,1,3.3,1.39,3.24,3.24,0,0,1,1.06,2.59,3.86,3.86,0,0,1-.69,2.27,4.59,4.59,0,0,1-2,1.54A7.61,7.61,0,0,1,365.86,408.16Z" transform="translate(-359.94 -390.37)"/><path class="cls-1" d="M376.27,408V392.45h1.82v7h.05l7.43-7h2.33l-8.55,8,0-.92,9.15,8.42h-2.4l-8-7.3h-.05V408Z" transform="translate(-359.94 -390.37)"/><path class="cls-1" d="M392,408V392.45h1.83V408Z" transform="translate(-359.94 -390.37)"/><path class="cls-1" d="M399.43,408V392.45h6.32a5.5,5.5,0,0,1,3.76,1.18,4.67,4.67,0,0,1,0,6.51,5.41,5.41,0,0,1-3.76,1.2h-4.49V408Zm1.83-8.14h4.31a3.71,3.71,0,0,0,2.56-.77,2.72,2.72,0,0,0,.87-2.15,2.75,2.75,0,0,0-.87-2.18,3.77,3.77,0,0,0-2.56-.77h-4.31Z" transform="translate(-359.94 -390.37)"/><path class="cls-1" d="M432.84,398.91,421.48,391a1.68,1.68,0,0,0-2.63,1.38v15.74a1.68,1.68,0,0,0,2.63,1.38l11.36-7.87A1.67,1.67,0,0,0,432.84,398.91Z" transform="translate(-359.94 -390.37)"/><rect class="cls-1" x="76.75" width="4.36" height="20.36" rx="0.91"/></svg>