<svg id="圖層_1" data-name="圖層 1" xmlns="http://www.w3.org/2000/svg" viewBox="0 0 32.7 24.52"><defs><style>.cls-1{fill:#fff;}</style></defs><path class="cls-1" d="M32.15,12.29A11.55,11.55,0,0,1,26.88,22a1.5,1.5,0,1,1-1.7-2.46,9,9,0,0,0,2.76-2.84,8.69,8.69,0,0,0-.52-9.64,8.82,8.82,0,0,0-2.12-2,1.58,1.58,0,0,1-.82-1.32,1.44,1.44,0,0,1,.77-1.36,1.42,1.42,0,0,1,1.53.07,11.23,11.23,0,0,1,2.27,1.91,11.54,11.54,0,0,1,3,6.36.45.45,0,0,1,0,.11C32.09,11.32,32.12,11.79,32.15,12.29Z"/><path class="cls-1" d="M22.36,7.27a2.27,2.27,0,0,1,1.53.61,5.28,5.28,0,0,1,2.18,4,5.33,5.33,0,0,1-2.82,5.17,1.44,1.44,0,0,1-2-.51,1.46,1.46,0,0,1,.5-2A2.71,2.71,0,0,0,23,12.9a2.48,2.48,0,0,0-1.11-2.77,1.5,1.5,0,0,1-.73-2A1.42,1.42,0,0,1,22.36,7.27Z"/><path class="cls-1" d="M16.32,12.29V22.83A1.52,1.52,0,0,1,15,24.49a1.32,1.32,0,0,1-1.21-.37c-.56-.53-1.09-1.07-1.64-1.62L8.31,18.62a.83.83,0,0,0-.65-.27h-6A1.55,1.55,0,0,1,0,16.86V7.75A1.56,1.56,0,0,1,1.53,6.16H7.65a.82.82,0,0,0,.66-.26c1.76-1.79,3.53-3.56,5.3-5.33A1.49,1.49,0,0,1,15.37.13a1.54,1.54,0,0,1,1,1.55V12.29Z"/></svg>